<svg xmlns="http://www.w3.org/2000/svg" viewBox="0 0 1024 1024">
  <defs>
    <linearGradient id="stone" x1="0" y1="0" x2="1" y2="1">
      <stop offset="0" stop-color="#303746"/>
      <stop offset="1" stop-color="#11151d"/>
    </linearGradient>
    <linearGradient id="gold" x1="0" y1="0" x2="1" y2="1">
      <stop offset="0" stop-color="#f0cb75"/>
      <stop offset="1" stop-color="#a86c20"/>
    </linearGradient>
  </defs>
  <path fill="url(#stone)" stroke="#c9973b" stroke-width="34"
    d="M304 126h416l178 178v416L720 898H304L126 720V304z"/>
  <path fill="#080a0e" stroke="#5c4830" stroke-width="18"
    d="M512 242l210 122v244L512 730 302 608V364z"/>
  <circle cx="512" cy="504" r="122" fill="#b3372c" stroke="#e0503f" stroke-width="22"/>
  <g fill="#e8c06a">
    <path d="M494 300h36v112h-36zM494 596h36v112h-36zM308 486h112v36H308zM604 486h112v36H604z"/>
    <path d="M371 337l25-25 79 79-25 25zM549 594l25-25 79 79-25 25zM312 628l79-79 25 25-79 79zM569 450l79-79 25 25-79 79z"/>
  </g>
  <circle cx="512" cy="504" r="48" fill="url(#gold)"/>
  <path fill="none" stroke="url(#gold)" stroke-width="42" stroke-linecap="round" stroke-linejoin="round"
    d="M326 760L676 270M642 274l94-18-25 92"/>
</svg>
